<svg xmlns="http://www.w3.org/2000/svg" viewBox="0 0 725.16 187.76"><defs><style>.cls-1{fill:none;stroke:#000;stroke-miterlimit:10;stroke-width:16px;}</style></defs><g id="Layer_2" data-name="Layer 2"><g id="Layer_1-2" data-name="Layer 1"><path d="M100.75,52.34Q105.3,48,110.09,48A11.5,11.5,0,0,1,119,51.91q3.5,3.87,3.5,12.84V81q0,9.09-3.5,12.9a11.87,11.87,0,0,1-9.16,3.81,13.21,13.21,0,0,1-8.72-3q-2.58-2.2-4.06-9a14.81,14.81,0,0,0-7.12-10.14q-10-5.9-25.43-5.89-17.82,0-28.57,10.44T25.19,106.53q0,14.75,10.32,23.28t34.28,8.54q15.72,0,25.68-3.2a31.92,31.92,0,0,0,11.18-6.69q5.28-4.74,9.58-4.73a12.08,12.08,0,0,1,8.91,3.81,12.37,12.37,0,0,1,3.75,9q0,8.36-11.43,15.85-17,11.17-49.64,11.18-29.37,0-45.7-12.17Q0,135,0,106.65,0,79.74,17.94,62.11T64.75,44.48a90.67,90.67,0,0,1,19.41,2A67.56,67.56,0,0,1,100.75,52.34Z"/><path d="M235.17,159.36v-5.9A81.56,81.56,0,0,1,214.28,161a97.21,97.21,0,0,1-20.76,2.52q-20.28,0-32.93-10.75T147.93,129q0-15.85,16.16-29.43T208.75,86a166.65,166.65,0,0,1,26.42,2.45v-6a10.94,10.94,0,0,0-4.86-9.21q-4.84-3.57-18.49-3.56-11.17,0-29,4.42a47.87,47.87,0,0,1-10.32,1.6A11.41,11.41,0,0,1,164,72.06a12.77,12.77,0,0,1-3.51-9.27,11.69,11.69,0,0,1,1.23-5.53,9.78,9.78,0,0,1,3.44-3.75q2.22-1.41,9.22-3.38a174.07,174.07,0,0,1,19-4.12A113.82,113.82,0,0,1,211,44.48q23.47,0,36.43,10.13t13,27.71v51.85h4.3q9.09,0,13,3.5a11.78,11.78,0,0,1,3.87,9.16,11.64,11.64,0,0,1-3.87,9q-3.87,3.49-13,3.5Zm0-45.09a146.08,146.08,0,0,0-27.89-3q-15.36,0-26.42,7.49-6.88,4.8-6.88,9.71a6.68,6.68,0,0,0,3.32,5.77q6.13,4.07,16.83,4.06a70.53,70.53,0,0,0,20.58-3.56,75.85,75.85,0,0,0,20.46-9.71Z"/><path d="M382.49,64.63a15.79,15.79,0,0,1-5,11.92q-5,4.78-13.89,4.79t-13.88-4.79a15.79,15.79,0,0,1-5-11.92,15.77,15.77,0,0,1,5-11.92q5-4.78,13.88-4.79t13.89,4.79A15.77,15.77,0,0,1,382.49,64.63Zm.24,82.44a15.77,15.77,0,0,1-5,11.92q-5,4.78-13.88,4.79T349.93,159a16.62,16.62,0,0,1,0-23.84q5-4.78,13.88-4.79t13.88,4.79A15.79,15.79,0,0,1,382.73,147.07Z"/><path d="M533.49,64.63a15.79,15.79,0,0,1-5,11.92q-5,4.78-13.88,4.79t-13.89-4.79a15.78,15.78,0,0,1-5-11.92,15.76,15.76,0,0,1,5-11.92q5-4.78,13.89-4.79t13.88,4.79A15.77,15.77,0,0,1,533.49,64.63Zm.24,82.44a15.76,15.76,0,0,1-5,11.92q-5,4.78-13.89,4.79T500.93,159a16.62,16.62,0,0,1,0-23.84q5-4.78,13.88-4.79t13.89,4.79A15.78,15.78,0,0,1,533.73,147.07Z"/><path d="M678.1,0V134.17h30.23q9.09,0,13,3.5a11.78,11.78,0,0,1,3.87,9.16,11.64,11.64,0,0,1-3.87,9q-3.87,3.49-13,3.5H622.69q-9.09,0-13-3.5a11.78,11.78,0,0,1-3.87-9.16,11.64,11.64,0,0,1,3.87-9q3.87-3.49,13-3.5h30.23v-109H632.64q-9,0-12.9-3.5a11.7,11.7,0,0,1-3.93-9.16,11.64,11.64,0,0,1,3.87-9q3.87-3.49,13-3.5Z"/><path class="cls-1" d="M329.32,184.7c-26.3-66.35-25.82-137.28,9.17-157,12.48-7,30.78-10.66,46.73-5.48C422,34.13,442.53,91.47,424.17,166c-3.08,12.49,49.58,14.95,43,4.1-17.8-29.25-31.43-118.71,9.34-150.6,15.17-11.87,40.51-11,56.08-4.11,36.17,16,44.47,93.9,13.23,169.34"/></g></g></svg>